<?xml version="1.0" encoding="UTF-8" standalone="no"?>
<svg
   xmlns="http://www.w3.org/2000/svg"
   width="100"
   height="100"
   version="1.1">
  <path
     shape-rendering="crispEdges"
     d="M 10,10 V 90 H 45 V 10 Z m 5,5 h 25 v 5 H 15 Z m 0,10 h 25 v 5 H 15 Z m -1,9 h 27 v 7 H 14 Z" />
  <path
     d="m 13,33 v 9 h 29 v -9 z m 4.5,2 C 18.880712,35 20,36.119288 20,37.5 20,38.880712 18.880712,40 17.5,40 16.119288,40 15,38.880712 15,37.5 15,36.119288 16.119288,35 17.5,35 Z m 10,0 C 28.880712,35 30,36.119288 30,37.5 30,38.880712 28.880712,40 27.5,40 26.119288,40 25,38.880712 25,37.5 25,36.119288 26.119288,35 27.5,35 Z m 10,0 C 38.880712,35 40,36.119288 40,37.5 40,38.880712 38.880712,40 37.5,40 36.119288,40 35,38.880712 35,37.5 35,36.119288 36.119288,35 37.5,35 Z" />
  <path
     shape-rendering="crispEdges"
     d="M 55,10 V 90 H 90 V 10 Z m 5,5 h 25 v 5 H 60 Z m 0,10 h 25 v 5 H 60 Z m -1,9 h 27 v 7 H 59 Z" />
  <path
     d="m 58,33 v 9 h 29 v -9 z m 4.5,2 C 63.880712,35 65,36.119288 65,37.5 65,38.880712 63.880712,40 62.5,40 61.119288,40 60,38.880712 60,37.5 60,36.119288 61.119288,35 62.5,35 Z m 10,0 C 73.880712,35 75,36.119288 75,37.5 75,38.880712 73.880712,40 72.5,40 71.119288,40 70,38.880712 70,37.5 70,36.119288 71.119288,35 72.5,35 Z m 10,0 C 83.880712,35 85,36.119288 85,37.5 85,38.880712 83.880712,40 82.5,40 81.119288,40 80,38.880712 80,37.5 80,36.119288 81.119288,35 82.5,35 Z" />
</svg>
