<?xml version="1.0" encoding="UTF-8" standalone="no"?>
<svg
   xmlns="http://www.w3.org/2000/svg"
   width="100"
   height="100"
   version="1.1">
  <path
     d="m 68.441735,30.078423 c -0.95992,0.0671 -1.88687,0.600408 -2.40625,1.5 l -27,46.78125 c -0.831008,1.43935 -0.345598,3.26274 1.09375,4.09375 l 20.78125,12 c 1.43935,0.83101 3.29399,0.3456 4.125,-1.09375 l 27,-46.78125 c 0.83101,-1.439348 0.31435,-3.262742 -1.125,-4.09375 l -20.78125,-12 c -0.53976,-0.31163 -1.11155,-0.44651 -1.6875,-0.40625 z m -2.40625,5.0625 22.90625,13.21875 -23.34375,40.4375 -22.90625,-13.25 z m -13.46875,47.625 c 1.467006,0 2.65625,1.18924 2.65625,2.65625 0,1.46701 -1.189244,2.65625 -2.65625,2.65625 -1.467006,0 -2.65625,-1.18924 -2.65625,-2.65625 0,-1.46701 1.189244,-2.65625 2.65625,-2.65625 z" />
  <path
     d="m 22.035485,5.1409232 c -7.996118,0 -14.4687503,8.0639398 -14.4687503,18.2812498 0,10.21715 6.4726323,18.71875 14.4687503,18.71875 h 37.5 l 2.875,-5 h -39.375 V 8.1409232 h 49 V 31.109673 l 7.15625,4.125 c 0.0348,-0.691568 0.61266,-1.25 1.3125,-1.25 0.72206,0 1.3125,0.590444 1.3125,1.3125 0,0.47833 -0.27141,0.873583 -0.65625,1.09375 l 1.78125,1.03125 c 3.18302,-3.448971 5.25,-8.468423 5.25,-14 0,-10.21747 -7.06144,-18.2812498 -15.15625,-18.2812498 z m 57.9375,9.7812498 c 1.23982,0 2.25,1.010177 2.25,2.25 0,1.239823 -1.01018,2.21875 -2.25,2.21875 -1.23982,0 -2.21875,-0.978927 -2.21875,-2.21875 0,-1.239823 0.97893,-2.25 2.21875,-2.25 z m -65.9375,1.21875 h 3 v 3 l -1.5,1.5625 -1.5,-1.5625 z m 61.90625,2.8125 c 1.23982,0 2.25,1.010177 2.25,2.25 0,1.239823 -1.01018,2.25 -2.25,2.25 -1.23982,0 -2.25,-1.010177 -2.25,-2.25 0,-1.239823 1.01018,-2.25 2.25,-2.25 z m 8.09375,0 c 1.23982,0 2.25,1.010177 2.25,2.25 0,1.239823 -1.01018,2.25 -2.25,2.25 -1.23982,0 -2.25,-1.010177 -2.25,-2.25 0,-1.239823 1.01018,-2.25 2.25,-2.25 z m -74,1.1875 h 3 l 1.5625,1.5 -1.5625,1.5 h -3 z m 8,0 h 3 v 3 h -3 l -1.5625,-1.5 z m -2.5,2.4375 1.5,1.5625 v 3 h -3 v -3 z m 64.4375,0.40625 c 1.23982,0 2.25,1.010177 2.25,2.25 0,1.239823 -1.01018,2.25 -2.25,2.25 -1.23982,0 -2.21875,-1.010177 -2.21875,-2.25 0,-1.239823 0.97893,-2.25 2.21875,-2.25 z m -67.25,7.84375 c 0.722056,0 1.3125,0.590444 1.3125,1.3125 0,0.722056 -0.590444,1.28125 -1.3125,1.28125 -0.722056,0 -1.28125,-0.559194 -1.28125,-1.28125 0,-0.722056 0.559194,-1.3125 1.28125,-1.3125 z m 70.375,0 c 0.72206,0 1.3125,0.590444 1.3125,1.3125 0,0.722056 -0.59044,1.28125 -1.3125,1.28125 -0.72206,0 -1.3125,-0.559194 -1.3125,-1.28125 0,-0.722056 0.59044,-1.3125 1.3125,-1.3125 z m -68.5,3.15625 c 0.722056,0 1.3125,0.590444 1.3125,1.3125 0,0.722056 -0.590444,1.28125 -1.3125,1.28125 -0.722056,0 -1.3125,-0.559194 -1.3125,-1.28125 0,-0.722056 0.590444,-1.3125 1.3125,-1.3125 z" />
</svg>
