<?xml version="1.0" encoding="UTF-8" standalone="no"?>
<svg
   xmlns="http://www.w3.org/2000/svg"
   width="100"
   height="100"
   version="1.1">
  <path
     shape-rendering="crispEdges"
     d="M 30,40 V 85 H 90 V 40 Z m 1.796875,1.015625 h 14 v 4 h -14 z M 32,46 H 88 V 83 H 32 Z" />
  <path
     d="m 21.328125,27.515625 v 5 h 15 v -5 z M 23.8125,28.21875 c 0.992387,0 1.8125,0.82011 1.8125,1.8125 0,0.99239 -0.820113,1.78125 -1.8125,1.78125 -0.992387,0 -1.78125,-0.78886 -1.78125,-1.78125 0,-0.99239 0.788863,-1.8125 1.78125,-1.8125 z m 5,0 c 0.992387,0 1.8125,0.82011 1.8125,1.8125 0,0.99239 -0.820113,1.78125 -1.8125,1.78125 -0.992387,0 -1.78125,-0.78886 -1.78125,-1.78125 0,-0.99239 0.788863,-1.8125 1.78125,-1.8125 z m 5,0 c 0.992387,0 1.8125,0.82011 1.8125,1.8125 0,0.99239 -0.820113,1.78125 -1.8125,1.78125 -0.992387,0 -1.78125,-0.78886 -1.78125,-1.78125 0,-0.99239 0.788863,-1.8125 1.78125,-1.8125 z" />
  <path
     d="m 31.296875,40.515625 v 5 h 15 v -5 z M 33.8125,41.21875 c 0.992387,0 1.78125,0.82011 1.78125,1.8125 0,0.99239 -0.788863,1.78125 -1.78125,1.78125 -0.992387,0 -1.8125,-0.78886 -1.8125,-1.78125 0,-0.99239 0.820113,-1.8125 1.8125,-1.8125 z m 5,0 c 0.992387,0 1.78125,0.82011 1.78125,1.8125 0,0.99239 -0.788863,1.78125 -1.78125,1.78125 -0.992387,0 -1.8125,-0.78886 -1.8125,-1.78125 0,-0.99239 0.820113,-1.8125 1.8125,-1.8125 z m 5,0 c 0.992387,0 1.78125,0.82011 1.78125,1.8125 0,0.99239 -0.788863,1.78125 -1.78125,1.78125 -0.992387,0 -1.8125,-0.78886 -1.8125,-1.78125 0,-0.99239 0.820113,-1.8125 1.8125,-1.8125 z" />
  <path
     shape-rendering="crispEdges"
     d="m 20,27 v 45 h 8 V 70 H 22 V 33 h 56 v 5 h 2 V 27 Z m 1.828125,1.015625 h 14 v 4 h -14 z" />
  <path
     d="m 11.296875,15.453125 v 5 h 15 v -5 z M 13.8125,16.15625 c 0.992387,0 1.78125,0.82011 1.78125,1.8125 0,0.99239 -0.788863,1.78125 -1.78125,1.78125 C 12.820113,19.75 12,18.96114 12,17.96875 c 0,-0.99239 0.820113,-1.8125 1.8125,-1.8125 z m 5,0 c 0.992387,0 1.78125,0.82011 1.78125,1.8125 0,0.99239 -0.788863,1.78125 -1.78125,1.78125 C 17.820113,19.75 17,18.96114 17,17.96875 c 0,-0.99239 0.820113,-1.8125 1.8125,-1.8125 z m 5,0 c 0.992387,0 1.78125,0.82011 1.78125,1.8125 0,0.99239 -0.788863,1.78125 -1.78125,1.78125 C 22.820113,19.75 22,18.96114 22,17.96875 c 0,-0.99239 0.820113,-1.8125 1.8125,-1.8125 z" />
  <path
     shape-rendering="crispEdges"
     d="m 10,15 v 45 h 8 V 58 H 12 V 21 h 56 v 4 h 2 V 15 Z m 1.796875,0.953125 h 14 v 4 h -14 z" />
  <path
     d="m 63.9375,52.46875 -10,23.71875 h 2.4375 l 10,-23.71875 z m -14.5625,4.46875 -9.8125,8.1875 9.8125,8.15625 1.59375,-1.59375 -7.9375,-6.59375 7.9375,-6.53125 z m 22.1875,0 L 70,58.5625 77.9375,65.15625 70,71.6875 71.5625,73.28125 81.375,65.125 Z" />
</svg>
