<?xml version="1.0" encoding="UTF-8"?>
<svg
   xmlns="http://www.w3.org/2000/svg"
   width="175"
   height="175">
  <path
     d="M 87.6875,0 0,87.6875 87.3125,175 l 0.75,0 L 175,88.0625 175,87.3125 87.6875,0 z M 50,52 l 60,0 0,8 -2,0 0,-2 -56,0 0,37 4,0 0,2 -6,0 0,-45 z m 3.8125,1.15625 c -0.992387,0 -1.8125,0.82011 -1.8125,1.8125 0,0.99239 0.820113,1.78125 1.8125,1.78125 0.992387,0 1.78125,-0.78886 1.78125,-1.78125 0,-0.99239 -0.788863,-1.8125 -1.78125,-1.8125 z m 5,0 c -0.992387,0 -1.8125,0.82011 -1.8125,1.8125 0,0.99239 0.820113,1.78125 1.8125,1.78125 0.992387,0 1.78125,-0.78886 1.78125,-1.78125 0,-0.99239 -0.788863,-1.8125 -1.78125,-1.8125 z m 5,0 c -0.992387,0 -1.8125,0.82011 -1.8125,1.8125 0,0.99239 0.820113,1.78125 1.8125,1.78125 0.992387,0 1.78125,-0.78886 1.78125,-1.78125 0,-0.99239 -0.788863,-1.8125 -1.78125,-1.8125 z M 59,65 l 60,0 0,10 -2,0 0,-4 -56,0 0,37 4,0 0,2 -6,0 0,-45 z m 3.8125,1.21875 c -0.992387,0 -1.78125,0.82011 -1.78125,1.8125 0,0.99239 0.788863,1.78125 1.78125,1.78125 0.992387,0 1.8125,-0.78886 1.8125,-1.78125 0,-0.99239 -0.820113,-1.8125 -1.8125,-1.8125 z m 5,0 c -0.992387,0 -1.78125,0.82011 -1.78125,1.8125 0,0.99239 0.788863,1.78125 1.78125,1.78125 0.992387,0 1.8125,-0.78886 1.8125,-1.78125 0,-0.99239 -0.820113,-1.8125 -1.8125,-1.8125 z m 5,0 c -0.992387,0 -1.78125,0.82011 -1.78125,1.8125 0,0.99239 0.788863,1.78125 1.78125,1.78125 0.992387,0 1.8125,-0.78886 1.8125,-1.78125 0,-0.99239 -0.820113,-1.8125 -1.8125,-1.8125 z M 68,78 l 60,0 0,45 -60,0 0,-45 z m 3.8125,1.21875 c -0.992387,0 -1.8125,0.82011 -1.8125,1.8125 0,0.99239 0.820113,1.78125 1.8125,1.78125 0.992387,0 1.78125,-0.78886 1.78125,-1.78125 0,-0.99239 -0.788863,-1.8125 -1.78125,-1.8125 z m 5,0 c -0.992387,0 -1.8125,0.82011 -1.8125,1.8125 0,0.99239 0.820113,1.78125 1.8125,1.78125 0.992387,0 1.78125,-0.78886 1.78125,-1.78125 0,-0.99239 -0.788863,-1.8125 -1.78125,-1.8125 z m 5,0 c -0.992387,0 -1.8125,0.82011 -1.8125,1.8125 0,0.99239 0.820113,1.78125 1.8125,1.78125 0.992387,0 1.78125,-0.78886 1.78125,-1.78125 0,-0.99239 -0.788863,-1.8125 -1.78125,-1.8125 z M 70,84 l 0,37 56,0 0,-37 -56,0 z m 31.9375,6.46875 2.4375,0 -10,23.71875 -2.4375,0 10,-23.71875 z m -14.5625,4.46875 1.59375,1.625 -7.9375,6.53125 7.9375,6.59375 -1.59375,1.59375 -9.8125,-8.15625 9.8125,-8.1875 z m 22.1875,0 9.8125,8.1875 -9.8125,8.15625 L 108,109.6875 115.9375,103.15625 108,96.5625 l 1.5625,-1.625 z"
     id="main"
     style="color: #000000;" />
</svg>
