<?xml version="1.0" encoding="UTF-8"?>
<svg
   xmlns="http://www.w3.org/2000/svg"
   width="175"
   height="175">
  <path
     d="M 87.5,-0.1875 87.3125,0 0,87.3125 -0.1875,87.5 0,87.6875 87.3125,175 87.5,175.1875 87.6875,175 175,87.6875 175.1875,87.5 175,87.3125 87.6875,0 87.5,-0.1875 z M 61,53 l 51,0 c 8.09481,0 15.15625,8.06378 15.15625,18.28125 0,5.531577 -2.06698,10.551029 -5.25,14 L 120.125,84.25 c 0.38484,-0.220167 0.65625,-0.61542 0.65625,-1.09375 0,-0.722056 -0.59044,-1.3125 -1.3125,-1.3125 -0.69984,0 -1.2777,0.558432 -1.3125,1.25 L 111,78.96875 111,56 62,56 62,85 101.375,85 98.5,90 61,90 C 53.003882,90 46.53125,81.4984 46.53125,71.28125 46.53125,61.06394 53.003882,53 61,53 z m 57.9375,9.78125 c -1.23982,0 -2.21875,1.010177 -2.21875,2.25 0,1.239823 0.97893,2.21875 2.21875,2.21875 1.23982,0 2.25,-0.978927 2.25,-2.21875 0,-1.239823 -1.01018,-2.25 -2.25,-2.25 z M 53,64 53,67 54.5,68.5625 56,67 l 0,-3 -3,0 z m 61.90625,2.8125 c -1.23982,0 -2.25,1.010177 -2.25,2.25 0,1.239823 1.01018,2.25 2.25,2.25 1.23982,0 2.25,-1.010177 2.25,-2.25 0,-1.239823 -1.01018,-2.25 -2.25,-2.25 z m 8.09375,0 c -1.23982,0 -2.25,1.010177 -2.25,2.25 0,1.239823 1.01018,2.25 2.25,2.25 1.23982,0 2.25,-1.010177 2.25,-2.25 0,-1.239823 -1.01018,-2.25 -2.25,-2.25 z M 49,68 l 0,3 3,0 1.5625,-1.5 L 52,68 49,68 z m 8,0 -1.5625,1.5 L 57,71 l 3,0 0,-3 -3,0 z M 54.5,70.4375 53,72 l 0,3 3,0 0,-3 -1.5,-1.5625 z m 64.4375,0.40625 c -1.23982,0 -2.21875,1.010177 -2.21875,2.25 0,1.239823 0.97893,2.25 2.21875,2.25 1.23982,0 2.25,-1.010177 2.25,-2.25 0,-1.239823 -1.01018,-2.25 -2.25,-2.25 z m -11.53125,7.09375 c 0.57595,-0.04026 1.14774,0.09462 1.6875,0.40625 l 20.78125,12 c 1.43935,0.831008 1.95601,2.654402 1.125,4.09375 l -27,46.78125 c -0.83101,1.43935 -2.68565,1.92476 -4.125,1.09375 l -20.78125,-12 C 77.654402,129.48149 77.168992,127.6581 78,126.21875 L 105,79.4375 c 0.51938,-0.899592 1.44633,-1.432897 2.40625,-1.5 z m -55.71875,0.75 c -0.722056,0 -1.28125,0.590444 -1.28125,1.3125 0,0.722056 0.559194,1.28125 1.28125,1.28125 C 52.409556,81.28125 53,80.722056 53,80 53,79.277944 52.409556,78.6875 51.6875,78.6875 z m 70.375,0 c -0.72206,0 -1.3125,0.590444 -1.3125,1.3125 0,0.722056 0.59044,1.28125 1.3125,1.28125 0.72206,0 1.3125,-0.559194 1.3125,-1.28125 0,-0.722056 -0.59044,-1.3125 -1.3125,-1.3125 z m -68.5,3.15625 c -0.722056,0 -1.3125,0.590444 -1.3125,1.3125 0,0.722056 0.590444,1.28125 1.3125,1.28125 0.722056,0 1.3125,-0.559194 1.3125,-1.28125 0,-0.722056 -0.590444,-1.3125 -1.3125,-1.3125 z M 105,83 l -23.34375,40.40625 22.90625,13.25 23.34375,-40.4375 L 105,83 z m -13.46875,47.625 c -1.467006,0 -2.65625,1.18924 -2.65625,2.65625 0,1.46701 1.189244,2.65625 2.65625,2.65625 1.467006,0 2.65625,-1.18924 2.65625,-2.65625 0,-1.46701 -1.189244,-2.65625 -2.65625,-2.65625 z"
     id="main"
     style="color: #000000;" />
</svg>
