<?xml version="1.0" encoding="UTF-8"?>
<svg
   xmlns="http://www.w3.org/2000/svg"
   width="100"
   height="100"
   version="1.1">
  <path
     d="m 42,66 v 17 h 2.182648 C 43.929611,82.658593 44,81 44,81 44.253648,72.11136 49.981736,67 57,67 v -1 z" />
  <path
     shape-rendering="crispEdges"
     d="M 14 10 L 14 58 L 83 58 L 83 10 L 14 10 z M 19 14 L 78 14 L 78 53 L 19 53 L 19 14 z " />
  <path
     d="M 28.1875 18.5625 C 27.473845 18.56252 26.849208 18.71396 26.3125 19 C 25.775785 19.28606 25.325572 19.6968 24.96875 20.21875 C 24.611923 20.74073 24.336135 21.36242 24.15625 22.09375 C 23.97636 22.8251 23.90625 23.61532 23.90625 24.5 C 23.90625 25.52625 23.99287 26.43846 24.1875 27.1875 C 24.382131 27.93654 24.671474 28.54762 25.03125 29.03125 C 25.391021 29.51488 25.805275 29.86078 26.3125 30.09375 C 26.819718 30.32672 27.380712 30.4375 28 30.4375 C 28.719542 30.4375 29.372481 30.3173 29.90625 30.03125 C 30.440005 29.7452 30.858968 29.33447 31.21875 28.8125 C 31.578515 28.29054 31.854303 27.6659 32.03125 26.9375 C 32.208177 26.20911 32.312491 25.3847 32.3125 24.5 C 32.312491 23.47377 32.194623 22.5928 32 21.84375 C 31.80536 21.09473 31.547265 20.48659 31.1875 20 C 30.827718 19.51343 30.382215 19.13923 29.875 18.90625 C 29.367772 18.67329 28.806777 18.56252 28.1875 18.5625 z M 28.09375 19.875 C 28.394539 19.87501 28.66443 19.931 28.90625 20.03125 C 29.14806 20.13153 29.37376 20.28887 29.5625 20.46875 C 29.751227 20.64864 29.895591 20.84604 30.03125 21.09375 C 30.166896 21.34147 30.28652 21.60546 30.375 21.90625 L 25.5 25.53125 C 25.48231 25.36022 25.47165 25.18284 25.46875 25 C 25.46585 24.81717 25.468747 24.65159 25.46875 24.46875 C 25.468747 23.71972 25.50114 23.03791 25.625 22.46875 C 25.748853 21.89961 25.926228 21.44882 26.15625 21.0625 C 26.386267 20.67619 26.672662 20.38214 27 20.1875 C 27.327332 19.99285 27.692686 19.87501 28.09375 19.875 z M 30.6875 23.375 C 30.70519 23.56375 30.704 23.77117 30.71875 23.96875 C 30.73347 24.16633 30.74999 24.36198 30.75 24.5625 C 30.749992 25.31154 30.68635 25.96211 30.5625 26.53125 C 30.438636 27.10041 30.261262 27.58539 30.03125 27.96875 C 29.801224 28.35212 29.514829 28.64912 29.1875 28.84375 C 28.860159 29.0384 28.494804 29.125 28.09375 29.125 C 27.781154 29.125 27.494759 29.07197 27.25 28.96875 C 27.005231 28.86554 26.785429 28.71704 26.59375 28.53125 C 26.402064 28.34547 26.260649 28.13451 26.125 27.875 C 25.989345 27.6155 25.86972 27.33795 25.78125 27.03125 L 30.6875 23.375 z " />
  <path
     d="m 55,69 c -4.970561,0 -9,5.1487 -9,11.5 0,6.35119 4.029439,11.5 9,11.5 h 34 c 5.03191,0 9.125,-5.14881 9.125,-11.5 C 98.125,74.1486 94.03191,69 89,69 Z m 1,2 H 88 V 89 H 56 Z" />
  <path
     d="m 58.90625,34.812499 -3.65625,1.9375 0.5625,1.28125 2.75,-1.5 v 8.4375 h -2.96875 v 1.4375 h 7.281248 v -1.4375 H 60.28125 v -10.15625 z" />
  <path
     d="m 38.3125,34.812499 -3.6875,1.9375 0.5625,1.28125 2.78125,-1.5 v 8.4375 H 35 v 1.4375 h 7.25 v -1.4375 h -2.59375 v -10.15625 z" />
  <path
     d="m 28,34.812499 -3.6875,1.9375 0.5625,1.28125 2.78125,-1.5 v 8.4375 H 24.6875 v 1.4375 h 7.25 v -1.4375 h -2.59375 v -10.15625 z" />
  <path
     d="M 69.4375 34.6875 C 68.72384 34.687511 68.09921 34.83896 67.5625 35.125 C 67.02579 35.411061 66.57557 35.821799 66.21875 36.34375 C 65.86192 36.86573 65.58614 37.48742 65.40625 38.21875 C 65.22632 38.950101 65.125 39.740319 65.125 40.625 C 65.125 41.651251 65.24287 42.563461 65.4375 43.3125 C 65.63213 44.061541 65.89022 44.672621 66.25 45.15625 C 66.60977 45.639881 67.05528 45.985781 67.5625 46.21875 C 68.06972 46.451721 68.63071 46.5625 69.25 46.5625 C 69.96954 46.5625 70.59123 46.442301 71.125 46.15625 C 71.65875 45.870199 72.10897 45.459471 72.46875 44.9375 C 72.82852 44.415541 73.1043 43.790901 73.28125 43.0625 C 73.45815 42.334111 73.53124 41.509699 73.53125 40.625 C 73.53124 39.59877 73.44465 38.717799 73.25 37.96875 C 73.05536 37.21973 72.76601 36.611591 72.40625 36.125 C 72.04647 35.63843 71.63221 35.26423 71.125 35.03125 C 70.61777 34.798291 70.05677 34.687511 69.4375 34.6875 z M 69.34375 36 C 69.64454 36.000011 69.91448 36.056 70.15625 36.15625 C 70.39806 36.25653 70.59251 36.413871 70.78125 36.59375 C 70.96997 36.77364 71.14559 36.97104 71.28125 37.21875 C 71.41689 37.46647 71.5365 37.730461 71.625 38.03125 L 66.71875 41.65625 C 66.70105 41.48522 66.6905 41.30784 66.6875 41.125 C 66.6845 40.942171 66.68749 40.77659 66.6875 40.59375 C 66.68749 39.844719 66.7511 39.162909 66.875 38.59375 C 66.99885 38.024609 67.17623 37.57382 67.40625 37.1875 C 67.63627 36.801201 67.92266 36.507141 68.25 36.3125 C 68.57733 36.117851 68.94268 36.000011 69.34375 36 z M 71.90625 39.5 C 71.92395 39.688739 71.95395 39.89617 71.96875 40.09375 C 71.98385 40.29133 71.96874 40.486981 71.96875 40.6875 C 71.96874 41.436549 71.90515 42.087111 71.78125 42.65625 C 71.65738 43.225409 71.48001 43.71039 71.25 44.09375 C 71.01998 44.47712 70.76483 44.774121 70.4375 44.96875 C 70.11016 45.163391 69.7448 45.25 69.34375 45.25 C 69.03115 45.25 68.74476 45.19697 68.5 45.09375 C 68.25523 44.990541 68.03542 44.842039 67.84375 44.65625 C 67.65206 44.470471 67.4794 44.259511 67.34375 44 C 67.2081 43.740499 67.11975 43.462951 67.03125 43.15625 L 71.90625 39.5 z " />
  <path
     d="M 48.8125 34.6875 C 48.098846 34.687511 47.474208 34.83896 46.9375 35.125 C 46.400786 35.411061 45.950573 35.821799 45.59375 36.34375 C 45.236924 36.86573 44.961136 37.48742 44.78125 38.21875 C 44.60136 38.950101 44.499999 39.740319 44.5 40.625 C 44.499999 41.651251 44.617868 42.563461 44.8125 43.3125 C 45.007131 44.061541 45.265224 44.672621 45.625 45.15625 C 45.984772 45.639881 46.430275 45.985781 46.9375 46.21875 C 47.444719 46.451721 48.005713 46.5625 48.625 46.5625 C 49.344542 46.5625 49.966231 46.442301 50.5 46.15625 C 51.033756 45.870199 51.483969 45.459471 51.84375 44.9375 C 52.203516 44.415541 52.479303 43.790901 52.65625 43.0625 C 52.83318 42.334111 52.906241 41.509699 52.90625 40.625 C 52.906241 39.59877 52.81962 38.717799 52.625 37.96875 C 52.430359 37.21973 52.141015 36.611591 51.78125 36.125 C 51.421468 35.63843 51.007215 35.26423 50.5 35.03125 C 49.992771 34.798291 49.431777 34.687511 48.8125 34.6875 z M 48.71875 36 C 49.019539 36.000011 49.289429 36.056 49.53125 36.15625 C 49.773059 36.25653 49.99876 36.413871 50.1875 36.59375 C 50.376228 36.77364 50.520591 36.97104 50.65625 37.21875 C 50.791895 37.46647 50.91152 37.730461 51 38.03125 L 46.09375 41.65625 C 46.07605 41.48522 46.0654 41.30784 46.0625 41.125 C 46.0596 40.942171 46.062498 40.77659 46.0625 40.59375 C 46.062498 39.844719 46.12614 39.162909 46.25 38.59375 C 46.373854 38.024609 46.551228 37.57382 46.78125 37.1875 C 47.011266 36.801201 47.297661 36.507141 47.625 36.3125 C 47.952331 36.117851 48.317686 36.000011 48.71875 36 z M 51.28125 39.5 C 51.29894 39.688739 51.329 39.89617 51.34375 40.09375 C 51.35847 40.29133 51.37499 40.486981 51.375 40.6875 C 51.374992 41.436549 51.31135 42.087111 51.1875 42.65625 C 51.063636 43.225409 50.886262 43.71039 50.65625 44.09375 C 50.426224 44.47712 50.139829 44.774121 49.8125 44.96875 C 49.485159 45.163391 49.119804 45.25 48.71875 45.25 C 48.406155 45.25 48.11976 45.19697 47.875 45.09375 C 47.630232 44.990541 47.41043 44.842039 47.21875 44.65625 C 47.027064 44.470471 46.88565 44.259511 46.75 44 C 46.614345 43.740499 46.49472 43.462951 46.40625 43.15625 L 51.28125 39.5 z " />
  <path
     d="m 69.218748,18.687499 -3.65625,1.9375 0.5625,1.28125 2.75,-1.5 v 8.4375 h -2.96875 v 1.4375 h 7.28125 v -1.4375 h -2.59375 v -10.15625 z" />
  <path
     d="m 38.3125,18.687499 -3.6875,1.9375 0.5625,1.28125 2.78125,-1.5 v 8.4375 H 35 v 1.4375 h 7.25 v -1.4375 h -2.59375 v -10.15625 z" />
  <path
     d="M 59.125 18.5625 C 58.411346 18.56252 57.786709 18.71396 57.25 19 C 56.713286 19.28606 56.263073 19.6968 55.90625 20.21875 C 55.549424 20.74073 55.273636 21.36242 55.09375 22.09375 C 54.91386 22.8251 54.812499 23.61532 54.8125 24.5 C 54.812499 25.52625 54.930367 26.43846 55.125 27.1875 C 55.31963 27.93654 55.577725 28.54762 55.9375 29.03125 C 56.297272 29.51488 56.742775 29.86078 57.25 30.09375 C 57.757219 30.32672 58.318213 30.4375 58.9375 30.4375 C 59.657042 30.4375 60.278731 30.3173 60.8125 30.03125 C 61.346256 29.7452 61.79647 29.33447 62.15625 28.8125 C 62.51602 28.29054 62.79181 27.6659 62.96875 26.9375 C 63.14565 26.20911 63.21874 25.3847 63.21875 24.5 C 63.21874 23.47377 63.13215 22.5928 62.9375 21.84375 C 62.74286 21.09473 62.45352 20.48659 62.09375 20 C 61.73397 19.51343 61.319715 19.13923 60.8125 18.90625 C 60.305271 18.67329 59.744277 18.56252 59.125 18.5625 z M 59.03125 19.875 C 59.332039 19.87501 59.601929 19.931 59.84375 20.03125 C 60.085559 20.13153 60.311259 20.28887 60.5 20.46875 C 60.688727 20.64864 60.833091 20.84604 60.96875 21.09375 C 61.104395 21.34147 61.22402 21.60546 61.3125 21.90625 L 56.40625 25.53125 C 56.38856 25.36022 56.3779 25.18284 56.375 25 C 56.3721 24.81717 56.374998 24.65159 56.375 24.46875 C 56.374998 23.71972 56.43864 23.03791 56.5625 22.46875 C 56.686354 21.89961 56.863728 21.44882 57.09375 21.0625 C 57.323766 20.67619 57.610161 20.38214 57.9375 20.1875 C 58.264831 19.99285 58.630186 19.87501 59.03125 19.875 z M 61.59375 23.375 C 61.61145 23.56375 61.64155 23.77117 61.65625 23.96875 C 61.67095 24.16633 61.6875 24.36198 61.6875 24.5625 C 61.68749 25.31154 61.623898 25.96211 61.5 26.53125 C 61.376136 27.10041 61.198763 27.58539 60.96875 27.96875 C 60.738724 28.35212 60.452329 28.64912 60.125 28.84375 C 59.797659 29.0384 59.432304 29.125 59.03125 29.125 C 58.718655 29.125 58.43226 29.07197 58.1875 28.96875 C 57.942732 28.86554 57.722929 28.71704 57.53125 28.53125 C 57.339563 28.34547 57.166899 28.13451 57.03125 27.875 C 56.895594 27.6155 56.80722 27.33795 56.71875 27.03125 L 61.59375 23.375 z " />
  <path
     d="M 48.8125 18.5625 C 48.098846 18.56252 47.474208 18.71396 46.9375 19 C 46.400786 19.28606 45.950573 19.6968 45.59375 20.21875 C 45.236924 20.74073 44.961136 21.36242 44.78125 22.09375 C 44.60136 22.8251 44.499999 23.61532 44.5 24.5 C 44.499999 25.52625 44.617868 26.43846 44.8125 27.1875 C 45.007131 27.93654 45.265224 28.54762 45.625 29.03125 C 45.984772 29.51488 46.430275 29.86078 46.9375 30.09375 C 47.444719 30.32672 48.005713 30.4375 48.625 30.4375 C 49.344542 30.4375 49.966231 30.3173 50.5 30.03125 C 51.033756 29.7452 51.483969 29.33447 51.84375 28.8125 C 52.203516 28.29054 52.479303 27.6659 52.65625 26.9375 C 52.83318 26.20911 52.906241 25.3847 52.90625 24.5 C 52.906241 23.47377 52.81962 22.5928 52.625 21.84375 C 52.430359 21.09473 52.141015 20.48659 51.78125 20 C 51.421468 19.51343 51.007215 19.13923 50.5 18.90625 C 49.992771 18.67329 49.431777 18.56252 48.8125 18.5625 z M 48.71875 19.875 C 49.019539 19.87501 49.289429 19.931 49.53125 20.03125 C 49.773059 20.13153 49.99876 20.28887 50.1875 20.46875 C 50.376228 20.64864 50.520591 20.84604 50.65625 21.09375 C 50.791895 21.34147 50.91152 21.60546 51 21.90625 L 46.09375 25.53125 C 46.07605 25.36022 46.0654 25.18284 46.0625 25 C 46.0596 24.81717 46.062498 24.65159 46.0625 24.46875 C 46.062498 23.71972 46.12614 23.03791 46.25 22.46875 C 46.373854 21.89961 46.551228 21.44882 46.78125 21.0625 C 47.011266 20.67619 47.297661 20.38214 47.625 20.1875 C 47.952331 19.99285 48.317686 19.87501 48.71875 19.875 z M 51.28125 23.375 C 51.29894 23.56375 51.329 23.77117 51.34375 23.96875 C 51.35847 24.16633 51.37499 24.36198 51.375 24.5625 C 51.374992 25.31154 51.31135 25.96211 51.1875 26.53125 C 51.063636 27.10041 50.886262 27.58539 50.65625 27.96875 C 50.426224 28.35212 50.139829 28.64912 49.8125 28.84375 C 49.485159 29.0384 49.119804 29.125 48.71875 29.125 C 48.406155 29.125 48.11976 29.07197 47.875 28.96875 C 47.630232 28.86554 47.41043 28.71704 47.21875 28.53125 C 47.027064 28.34547 46.88565 28.13451 46.75 27.875 C 46.614345 27.6155 46.49472 27.33795 46.40625 27.03125 L 51.28125 23.375 z " />
  <path
     d="M 14,63 4,83 H 43 V 67 h 12.96875 29.031248 l -2,-4 z" />
</svg>
