<?xml version="1.0" encoding="UTF-8"?>
<svg
   xmlns="http://www.w3.org/2000/svg"
   width="175"
   height="175">
  <path
     d="M 87.5,0 0,87.5 87.5,175 175,87.5 87.5,0 z M 51,46 l 69,0 0,48 -69,0 0,-48 z m 5,4 0,38 59,0 0,-38 -59,0 z m 9.1875,4.5625 c 0.619277,2e-5 1.180272,0.11079 1.6875,0.34375 0.507215,0.23298 0.952718,0.60718 1.3125,1.09375 0.359765,0.48659 0.61786,1.09473 0.8125,1.84375 0.194623,0.74905 0.312491,1.63002 0.3125,2.65625 -9e-6,0.8847 -0.104323,1.70911 -0.28125,2.4375 -0.176947,0.7284 -0.452735,1.35304 -0.8125,1.875 -0.359782,0.52197 -0.778745,0.9327 -1.3125,1.21875 C 66.372481,66.3173 65.719542,66.4375 65,66.4375 c -0.619288,0 -1.180282,-0.11078 -1.6875,-0.34375 -0.507225,-0.23297 -0.921479,-0.57887 -1.28125,-1.0625 C 61.671474,64.54762 61.382131,63.93654 61.1875,63.1875 60.992867,62.43846 60.90625,61.52625 60.90625,60.5 c 0,-0.88468 0.07011,-1.6749 0.25,-2.40625 0.179885,-0.73133 0.455673,-1.35302 0.8125,-1.875 C 62.325572,55.6968 62.775785,55.28606 63.3125,55 c 0.536708,-0.28604 1.161345,-0.43748 1.875,-0.4375 z m 20.625,0 c 0.619277,2e-5 1.180271,0.11079 1.6875,0.34375 0.507215,0.23298 0.921468,0.60718 1.28125,1.09375 0.359765,0.48659 0.649109,1.09473 0.84375,1.84375 0.194622,0.74905 0.281241,1.63002 0.28125,2.65625 -9e-6,0.8847 -0.07307,1.70911 -0.25,2.4375 -0.176947,0.7284 -0.452734,1.35304 -0.8125,1.875 -0.359781,0.52197 -0.809994,0.9327 -1.34375,1.21875 -0.533769,0.28605 -1.155458,0.40625 -1.875,0.40625 -0.619287,0 -1.180281,-0.11078 -1.6875,-0.34375 C 83.430275,65.86078 82.984772,65.51488 82.625,65.03125 82.265224,64.54762 82.007131,63.93654 81.8125,63.1875 81.617868,62.43846 81.499999,61.52625 81.5,60.5 c -10e-7,-0.88468 0.10136,-1.6749 0.28125,-2.40625 0.179886,-0.73133 0.455674,-1.35302 0.8125,-1.875 C 82.950573,55.6968 83.400786,55.28606 83.9375,55 c 0.536708,-0.28604 1.161346,-0.43748 1.875,-0.4375 z m 10.3125,0 c 0.619277,2e-5 1.180271,0.11079 1.6875,0.34375 0.507215,0.23298 0.921469,0.60718 1.28125,1.09375 0.359766,0.48659 0.649109,1.09473 0.84375,1.84375 0.19462,0.74905 0.28124,1.63002 0.28125,2.65625 -1e-5,0.8847 -0.0731,1.70911 -0.25,2.4375 -0.176946,0.7284 -0.452735,1.35304 -0.8125,1.875 -0.359782,0.52197 -0.809994,0.9327 -1.34375,1.21875 -0.533769,0.28605 -1.155458,0.40625 -1.875,0.40625 -0.619287,0 -1.180281,-0.11078 -1.6875,-0.34375 -0.507225,-0.23297 -0.952728,-0.57887 -1.3125,-1.0625 C 92.577725,64.54762 92.31963,63.93654 92.125,63.1875 91.930367,62.43846 91.812499,61.52625 91.8125,60.5 c -10e-7,-0.88468 0.10136,-1.6749 0.28125,-2.40625 0.179886,-0.73133 0.455674,-1.35302 0.8125,-1.875 C 93.263073,55.6968 93.713286,55.28606 94.25,55 c 0.536709,-0.28604 1.161346,-0.43748 1.875,-0.4375 z m -20.8125,0.125 1.34375,0 0,10.15625 2.59375,0 0,1.4375 -7.25,0 0,-1.4375 2.96875,0 0,-8.4375 -2.78125,1.5 -0.5625,-1.28125 3.6875,-1.9375 z m 30.90625,0 1.375,0 0,10.15625 2.59375,0 0,1.4375 -7.28125,0 0,-1.4375 2.96875,0 0,-8.4375 -2.75,1.5 -0.5625,-1.28125 3.65625,-1.9375 z m -41.125,1.1875 c -0.401064,1e-5 -0.766418,0.11785 -1.09375,0.3125 -0.327338,0.19464 -0.613733,0.48869 -0.84375,0.875 -0.230022,0.38632 -0.407397,0.83711 -0.53125,1.40625 -0.123859,0.56916 -0.156253,1.25097 -0.15625,2 -3e-6,0.18284 -0.0029,0.34842 0,0.53125 0.0029,0.18284 0.01356,0.36022 0.03125,0.53125 l 4.875,-3.625 c -0.08848,-0.30079 -0.208104,-0.56478 -0.34375,-0.8125 -0.135659,-0.24771 -0.280023,-0.44511 -0.46875,-0.625 -0.18874,-0.17988 -0.41444,-0.33722 -0.65625,-0.4375 C 65.66443,55.931 65.394539,55.87501 65.09375,55.875 z m 20.625,0 c -0.401064,1e-5 -0.766419,0.11785 -1.09375,0.3125 -0.327339,0.19464 -0.613734,0.48869 -0.84375,0.875 -0.230022,0.38632 -0.407396,0.83711 -0.53125,1.40625 -0.123859,0.56916 -0.187502,1.25097 -0.1875,2 -2e-6,0.18284 -0.0029,0.34842 0,0.53125 0.0029,0.18284 0.01355,0.36022 0.03125,0.53125 L 88,57.90625 c -0.08848,-0.30079 -0.208105,-0.56478 -0.34375,-0.8125 -0.135659,-0.24771 -0.280022,-0.44511 -0.46875,-0.625 -0.18874,-0.17988 -0.414441,-0.33722 -0.65625,-0.4375 C 86.289429,55.931 86.019539,55.87501 85.71875,55.875 z m 10.3125,0 c -0.401064,1e-5 -0.766419,0.11785 -1.09375,0.3125 -0.327339,0.19464 -0.613734,0.48869 -0.84375,0.875 -0.230022,0.38632 -0.407396,0.83711 -0.53125,1.40625 -0.123859,0.56916 -0.187502,1.25097 -0.1875,2 -2e-6,0.18284 -0.0029,0.34842 0,0.53125 0.0029,0.18284 0.01356,0.36022 0.03125,0.53125 l 4.90625,-3.625 C 98.22402,57.60546 98.104395,57.34147 97.96875,57.09375 97.833091,56.84604 97.688727,56.64864 97.5,56.46875 97.311259,56.28887 97.085559,56.13153 96.84375,56.03125 96.601929,55.931 96.332039,55.87501 96.03125,55.875 z m -28.34375,3.5 -4.90625,3.65625 c 0.08847,0.3067 0.208095,0.58425 0.34375,0.84375 0.135649,0.25951 0.277064,0.47047 0.46875,0.65625 0.191679,0.18579 0.411481,0.33429 0.65625,0.4375 0.244759,0.10322 0.531154,0.15625 0.84375,0.15625 0.401054,0 0.766409,-0.0866 1.09375,-0.28125 0.327329,-0.19463 0.613724,-0.49163 0.84375,-0.875 0.230012,-0.38336 0.407386,-0.86834 0.53125,-1.4375 0.123849,-0.56914 0.187492,-1.21971 0.1875,-1.96875 -8e-6,-0.20052 -0.01653,-0.39617 -0.03125,-0.59375 C 67.704,59.77117 67.70519,59.56375 67.6875,59.375 z m 20.59375,0 -4.875,3.65625 c 0.08847,0.3067 0.208095,0.58425 0.34375,0.84375 0.13565,0.25951 0.277064,0.47047 0.46875,0.65625 0.19168,0.18579 0.411482,0.33429 0.65625,0.4375 0.24476,0.10322 0.531155,0.15625 0.84375,0.15625 0.401054,0 0.766409,-0.0866 1.09375,-0.28125 0.327329,-0.19463 0.613724,-0.49163 0.84375,-0.875 0.230012,-0.38336 0.407386,-0.86834 0.53125,-1.4375 0.123849,-0.56914 0.187492,-1.21971 0.1875,-1.96875 -8e-6,-0.20052 -0.01653,-0.39617 -0.03125,-0.59375 -0.01475,-0.19758 -0.04481,-0.405 -0.0625,-0.59375 z m 10.3125,0 -4.875,3.65625 c 0.08847,0.3067 0.176844,0.58425 0.3125,0.84375 0.135649,0.25951 0.308313,0.47047 0.5,0.65625 0.191679,0.18579 0.411482,0.33429 0.65625,0.4375 0.24476,0.10322 0.531155,0.15625 0.84375,0.15625 0.401054,0 0.766409,-0.0866 1.09375,-0.28125 0.327329,-0.19463 0.613724,-0.49163 0.84375,-0.875 0.230013,-0.38336 0.407386,-0.86834 0.53125,-1.4375 0.123849,-0.56914 0.187492,-1.21971 0.1875,-1.96875 -8e-6,-0.20052 -0.01653,-0.39617 -0.03125,-0.59375 -0.01475,-0.19758 -0.04481,-0.405 -0.0625,-0.59375 z M 85.8125,70.6875 c 0.619277,1e-5 1.180271,0.11079 1.6875,0.34375 0.507215,0.23298 0.921468,0.60718 1.28125,1.09375 0.359765,0.48659 0.649109,1.09473 0.84375,1.84375 0.194622,0.74905 0.281241,1.63002 0.28125,2.65625 -9e-6,0.8847 -0.07307,1.70911 -0.25,2.4375 -0.176947,0.7284 -0.452734,1.35304 -0.8125,1.875 -0.359781,0.52197 -0.809994,0.9327 -1.34375,1.21875 -0.533769,0.28605 -1.155458,0.40625 -1.875,0.40625 -0.619287,0 -1.180281,-0.11078 -1.6875,-0.34375 C 83.430275,81.98578 82.984772,81.63988 82.625,81.15625 82.265224,80.67262 82.007131,80.06154 81.8125,79.3125 81.617868,78.56346 81.499999,77.65125 81.5,76.625 c -10e-7,-0.88468 0.10136,-1.6749 0.28125,-2.40625 0.179886,-0.73133 0.455674,-1.35302 0.8125,-1.875 0.356823,-0.52195 0.807036,-0.93269 1.34375,-1.21875 0.536708,-0.28604 1.161346,-0.43749 1.875,-0.4375 z m 20.625,0 c 0.61927,1e-5 1.18027,0.11079 1.6875,0.34375 0.50721,0.23298 0.92147,0.60718 1.28125,1.09375 0.35976,0.48659 0.64911,1.09473 0.84375,1.84375 0.19462,0.74905 0.28124,1.63002 0.28125,2.65625 -1e-5,0.8847 -0.0731,1.70911 -0.25,2.4375 -0.17695,0.7284 -0.45273,1.35304 -0.8125,1.875 -0.35978,0.52197 -0.81,0.9327 -1.34375,1.21875 -0.53377,0.28605 -1.15546,0.40625 -1.875,0.40625 -0.61929,0 -1.18028,-0.11078 -1.6875,-0.34375 -0.50722,-0.23297 -0.95273,-0.57887 -1.3125,-1.0625 -0.35978,-0.48363 -0.61787,-1.09471 -0.8125,-1.84375 -0.19463,-0.74904 -0.3125,-1.66125 -0.3125,-2.6875 0,-0.88468 0.10132,-1.6749 0.28125,-2.40625 0.17989,-0.73133 0.45567,-1.35302 0.8125,-1.875 0.35682,-0.52195 0.80704,-0.93269 1.34375,-1.21875 0.53671,-0.28604 1.16134,-0.43749 1.875,-0.4375 z M 65,70.8125 l 1.34375,0 0,10.15625 2.59375,0 0,1.4375 -7.25,0 0,-1.4375 2.96875,0 0,-8.4375 -2.78125,1.5 L 61.3125,72.75 65,70.8125 z m 10.3125,0 1.34375,0 0,10.15625 2.59375,0 0,1.4375 -7.25,0 0,-1.4375 2.96875,0 0,-8.4375 -2.78125,1.5 L 71.625,72.75 75.3125,70.8125 z m 20.59375,0 1.375,0 0,10.15625 2.59375,0 0,1.4375 -7.28125,0 0,-1.4375 2.96875,0 0,-8.4375 -2.75,1.5 L 92.25,72.75 95.90625,70.8125 z M 85.71875,72 c -0.401064,1e-5 -0.766419,0.11785 -1.09375,0.3125 -0.327339,0.19464 -0.613734,0.4887 -0.84375,0.875 -0.230022,0.38632 -0.407396,0.83711 -0.53125,1.40625 -0.123859,0.56916 -0.187502,1.25097 -0.1875,2 -2e-6,0.18284 -0.0029,0.34842 0,0.53125 0.0029,0.18284 0.01355,0.36022 0.03125,0.53125 L 88,74.03125 c -0.08848,-0.30079 -0.208105,-0.56478 -0.34375,-0.8125 -0.135659,-0.24771 -0.280022,-0.44511 -0.46875,-0.625 -0.18874,-0.17988 -0.414441,-0.33722 -0.65625,-0.4375 C 86.289429,72.056 86.019539,72.00001 85.71875,72 z m 20.625,0 c -0.40107,1e-5 -0.76642,0.11785 -1.09375,0.3125 -0.32734,0.19464 -0.61373,0.4887 -0.84375,0.875 -0.23002,0.38632 -0.4074,0.83711 -0.53125,1.40625 -0.12386,0.56916 -0.18751,1.25097 -0.1875,2 -1e-5,0.18284 -0.003,0.34842 0,0.53125 0.003,0.18284 0.0135,0.36022 0.0312,0.53125 l 4.90625,-3.625 c -0.0885,-0.30079 -0.20811,-0.56478 -0.34375,-0.8125 -0.13566,-0.24771 -0.31128,-0.44511 -0.5,-0.625 -0.18874,-0.17988 -0.38319,-0.33722 -0.625,-0.4375 C 106.91443,72.056 106.64454,72.00001 106.34375,72 z m -18.0625,3.5 -4.875,3.65625 C 83.49472,79.46295 83.614345,79.7405 83.75,80 c 0.13565,0.25951 0.277064,0.47047 0.46875,0.65625 0.19168,0.18579 0.411482,0.33429 0.65625,0.4375 0.24476,0.10322 0.531155,0.15625 0.84375,0.15625 0.401054,0 0.766409,-0.08661 1.09375,-0.28125 0.327329,-0.19463 0.613724,-0.49163 0.84375,-0.875 0.230012,-0.38336 0.407386,-0.86834 0.53125,-1.4375 0.123849,-0.56914 0.187492,-1.2197 0.1875,-1.96875 -8e-6,-0.20052 -0.01653,-0.39617 -0.03125,-0.59375 C 88.329,75.89617 88.29894,75.68874 88.28125,75.5 z m 20.625,0 -4.875,3.65625 c 0.0885,0.3067 0.17685,0.58425 0.3125,0.84375 0.13565,0.25951 0.30831,0.47047 0.5,0.65625 0.19167,0.18579 0.41148,0.33429 0.65625,0.4375 0.24476,0.10322 0.53115,0.15625 0.84375,0.15625 0.40105,0 0.76641,-0.08661 1.09375,-0.28125 0.32733,-0.19463 0.58248,-0.49163 0.8125,-0.875 0.23001,-0.38336 0.40738,-0.86834 0.53125,-1.4375 0.12385,-0.56914 0.18749,-1.2197 0.1875,-1.96875 -1e-5,-0.20052 0.0151,-0.39617 0,-0.59375 -0.0148,-0.19758 -0.0448,-0.40501 -0.0625,-0.59375 z M 51,99 l 69,0 2,4 -29.03125,0 C 82.685119,103 79.314152,117.4763 81.3125,119 L 41,119 51,99 z m 42,7 32,0 c 5.03191,0 9.125,5.1486 9.125,11.5 0,6.35119 -4.09309,11.5 -9.125,11.5 l -32,0 c -4.970561,0 -9,-5.14881 -9,-11.5 0,-6.3513 4.029439,-11.5 9,-11.5 z m 0,2 0,18 32,0 0,-18 -32,0 z"
     id="main"
     style="color: #000000;" />
</svg>
