<?xml version="1.0" encoding="UTF-8"?>
<svg
   xmlns="http://www.w3.org/2000/svg"
   width="175"
   height="175">
  <path
     d="M 87.3125,0 0,87.3125 0,87.6875 87.3125,175 87.6875,175 175,87.6875 175,87.3125 87.6875,0 87.3125,0 z m -6.5,47.34375 c 16.007907,0 29.30924,11.57656 32,26.8125 -0.25221,-0.009 -0.49551,-0.03125 -0.75,-0.03125 -8.96669,0 -16.578239,5.83555 -19.25,13.90625 L 88.90625,80.375 c 4.26562,-0.939 7.551136,-2.82305 9.875,-5.65625 1.49612,-1.8941 2.24996,-4.01928 2.25,-6.375 -4e-5,-2.14871 -0.57221,-3.97255 -1.75,-5.46875 -1.289285,-1.60754 -3.219295,-2.76838 -5.75,-3.46875 -2.530774,-0.70029 -5.228205,-1.03121 -8.125,-1.03125 l -19.875,0 -0.1875,1.375 c 1.464321,4e-5 2.518993,0.42238 3.1875,1.25 0.668488,0.8277 0.99999,2.19913 1,4.125 L 64.25,94.9375 c -0.286504,1.6713 -0.972216,2.9746 -2.0625,3.9375 -1.09029,0.963 -2.454339,1.46875 -4.09375,1.46875 l -0.1875,1.34375 20.53125,0 0.1875,-1.34375 c -1.432514,0 -2.471852,-0.4144 -3.15625,-1.25 -0.68443,-0.8356 -1.031265,-2.23035 -1.03125,-4.15625 l 2.34375,-13.40625 1.5625,0 9.59375,20.15625 5.21875,0 c 0.903292,2.3357 2.223961,4.45675 3.875,6.28125 -4.776514,2.7592 -10.306025,4.375 -16.21875,4.375 -17.949254,0 -32.5,-14.5508 -32.5,-32.5 0,-17.94927 14.550746,-32.5 32.5,-32.5 z m 2.21875,13.1875 c 4.026877,4e-5 6.528473,1.31188 7.53125,3.90625 0.1273,0.33429 0.218718,0.99671 0.21875,2.03125 -3.2e-5,3.02419 -0.573368,5.70745 -1.6875,8.03125 -1.623523,3.3266 -4.893707,5.0001 -9.84375,5 l -2.0625,0 L 80,63.15625 c 0.286478,-1.4802 1.296316,-2.35438 3.03125,-2.625 z m 29,16.8125 c 9.36316,0 17.03125,7.66808 17.03125,17.03125 0,4.51768 -1.78814,8.63751 -4.6875,11.6875 l 8.53125,8.5625 c 1.13771,1.13771 1.13771,2.95604 0,4.09375 -1.1377,1.1377 -2.95604,1.13771 -4.09375,0 l -9.15625,-9.125 c -2.29333,1.15142 -4.89566,1.78125 -7.625,1.78125 -9.36317,0 -17.03125,-7.63683 -17.03125,-17 0,-9.36317 7.66808,-17.03125 17.03125,-17.03125 z m 0,6 C 105.91072,83.34375 101,88.25447 101,94.375 c 0,6.12053 4.91072,11 11.03125,11 6.12053,0 11.03125,-4.87947 11.03125,-11 0,-6.12053 -4.91072,-11.03125 -11.03125,-11.03125 z"
     id="main"
     style="color: #000000;" />
</svg>
